Coordinates
version=1
nRows=10
nColumns=22
inDegrees=yes

Units are S.I. units (second, meters, Newtons, ...)
If the header above contains a line with 'inDegrees', this indicates whether rotational values are in degrees (yes) or radians (no).

endheader
time	pelvis_tilt	pelvis_list	pelvis_rotation	pelvis_tx	pelvis_ty	pelvis_tz	hip_flexion_r	hip_adduction_r	hip_rotation_r	knee_angle_r	ankle_angle_r	subtalar_angle_r	hip_flexion_l	hip_adduction_l	hip_rotation_l	knee_angle_l	ankle_angle_l	subtalar_angle_l	lumbar_extension	lumbar_bending	lumbar_rotation
      4.87000000	     -7.76113754	     -4.80196911	    231.40254368	     -0.59037849	      0.93258546	     -0.30442863	      2.74034820	     -5.58312725	     -3.61451150	    -61.16654355	     -7.35322703	     13.74303631	      7.21262088	      5.80089888	    -19.37841295	    -23.65454783	     20.53499282	    -27.87988122	    -14.91975186	      1.53186812	     -7.76851513
      4.88000000	     -7.63396656	     -4.97527393	    232.57049763	     -0.59411869	      0.93368112	     -0.29634611	      4.16924067	     -5.69505235	     -3.16548750	    -61.48836462	     -6.01913807	     12.88555959	      6.24611126	      6.22505927	    -18.43560944	    -23.07427167	     20.67145160	    -27.52876407	    -15.04930278	      1.59589852	     -8.35282888
      4.89000000	     -7.50971729	     -5.12721001	    233.79714706	     -0.59769511	      0.93475942	     -0.28834341	      5.53765581	     -5.73963281	     -2.71730133	    -61.50720006	     -4.71940061	     12.16330455	      5.28824180	      6.60165500	    -17.41505485	    -22.48521677	     20.72787678	    -27.15725280	    -15.16096861	      1.67647807	     -8.93373932
      4.90000000	     -7.40728150	     -5.26055430	    235.04036628	     -0.60121348	      0.93580203	     -0.28041339	      6.82613164	     -5.71070453	     -2.25453027	    -61.23048129	     -3.41073018	     11.30902946	      4.32406334	      6.90034968	    -16.41296146	    -21.89914691	     20.87684782	    -26.74635246	    -15.26068827	      1.77864827	     -9.47127612
      4.91000000	     -7.28996805	     -5.38439268	    236.32561069	     -0.60460395	      0.93677260	     -0.27258893	      8.05687428	     -5.65464051	     -1.78719426	    -60.68737889	     -2.19361776	     10.70310922	      3.38636381	      7.17373885	    -15.32505744	    -21.32870621	     20.92096379	    -26.34187305	    -15.34568616	      1.86375100	     -9.99663010
      4.92000000	     -7.16913547	     -5.50266337	    237.61874012	     -0.60795254	      0.93765415	     -0.26484443	      9.21490268	     -5.57793268	     -1.31456908	    -59.88902159	     -1.01495674	     10.09609319	      2.45949697	      7.40417736	    -14.23953117	    -20.77596156	     21.00639758	    -25.91909150	    -15.41943678	      1.93457583	    -10.48296396
      4.93000000	     -7.03675014	     -5.62017907	    238.91320402	     -0.61126410	      0.93842755	     -0.25719013	     10.30426371	     -5.49987131	     -0.83887909	    -58.85692270	      0.09684031	      9.53992507	      1.55438838	      7.60543220	    -13.14198103	    -20.25727365	     21.11317378	    -25.49591099	    -15.48792117	      1.97905963	    -10.92668996
      4.94000000	     -6.88799452	     -5.73679944	    240.20491394	     -0.61455282	      0.93908166	     -0.24960194	     11.32516030	     -5.43800687	     -0.37835784	    -57.60437010	      1.13495631	      9.01563788	      0.67258893	      7.78555913	    -12.03180091	    -19.77210274	     21.24003576	    -25.07640221	    -15.54743733	      1.99377514	    -11.32876139
      4.95000000	     -6.71728180	     -5.84427914	    241.50105343	     -0.61781071	      0.93959630	     -0.24205505	     12.28574869	     -5.40334875	      0.04671167	    -56.14928986	      2.08151233	      8.61688104	     -0.17057770	      7.94862142	    -10.89426410	    -19.33085883	     21.36896971	    -24.69007139	    -15.58580933	      1.98288777	    -11.70443241
      4.96000000	     -6.53480235	     -5.95640387	    242.77822768	     -0.62107101	      0.93999393	     -0.23457432	     13.17168569	     -5.39225593	      0.44461392	    -54.50313709	      2.94439259	      8.16575427	     -0.98767126	      8.09394397	     -9.74149074	    -18.94564077	     21.52825061	    -24.30789583	    -15.63179985	      1.94315424	    -12.03472974
